cover
 
http://img819.imageshack.us/img819/9677/jeeperscreeperscopy.png

On their way back home during the spring break, Darry and Patricia
Jenner witness a mysterious person dumping something down a tunnel.
Deciding to discover what was dumped down there, Darry discovers a
huge disturbing hideout full of modified bodies. Darry and Patricia
set off to get help, unaware that the individual is now aware of who
has been down the tunnel. Darry and Patricia soon realizes that their
pursuer is not just a mysterious person, but something even more horrifying,
who has more in store than they could possibly imagine.


SOURCE: SINNERS (4.49GB) THANKS!!!


Jeepers Creepers 2001 720p BRRip H264 AAC-Rx(Phoenix-RG).mp4
Format : MPEG-4 / AVC
File size : 1.34 GiB
Duration : 1h 30mn
Bit rate mode : Variable
Bit rate : 1 800 Kbps
Maximum bit rate : 10.4 Mbps
Width : 1 280 pixels
Height : 688 pixels
Display aspect ratio : 1.860
Frame rate mode : Constant
Frame rate : 23.976 fps
Resolution : 24 bits
Colorimetry : 4:2:0
Scan type : Progressive
Bits/(Pixel*Frame) : 0.085
Stream size : 1.14 GiB (85%)


Format : AAC / LC
Duration : 1h 30mn
Bit rate mode : Variable
Bit rate : 321 Kbps
Maximum bit rate : 456 Kbps
Channel(s) : 6 channels
Channel positions : Front: L C R, Rear: L R, LFE
Sampling rate : 48.0 KHz
Resolution : 16 bits
Stream size : 208 MiB (15%)
 
http://www.imdb.com/title/tt0263488

screens
 
http://img696.imageshack.us/img696/9585/vlcsnap2010102409h41m54.png 
http://img515.imageshack.us/img515/9539/vlcsnap2010102409h43m05.png 
http://img638.imageshack.us/img638/6016/vlcsnap2010102409h45m15.png
